<svg id="Camada_1" data-name="Camada 1" xmlns="http://www.w3.org/2000/svg" xmlns:xlink="http://www.w3.org/1999/xlink" viewBox="0 0 380.02 36.55"><defs><style>.cls-1{fill:#202020;}.cls-2{fill:url(#Gradiente_sem_nome_10);}.cls-3{fill:url(#Gradiente_sem_nome_8);}.cls-4{fill:url(#Gradiente_sem_nome_6);}</style><linearGradient id="Gradiente_sem_nome_10" x1="0.11" y1="22.95" x2="18.2" y2="24.22" gradientUnits="userSpaceOnUse"><stop offset="0.05" stop-color="#f5cc65"/><stop offset="0.23" stop-color="#f8d370"/><stop offset="0.4" stop-color="#f2c65a"/><stop offset="0.64" stop-color="#ea9c47"/><stop offset="0.87" stop-color="#ea9c47"/></linearGradient><linearGradient id="Gradiente_sem_nome_8" x1="7.76" y1="8.33" x2="30.38" y2="16.22" gradientUnits="userSpaceOnUse"><stop offset="0.05" stop-color="#f5cc65"/><stop offset="0.23" stop-color="#f8d370"/><stop offset="0.4" stop-color="#f2c65a"/><stop offset="0.74" stop-color="#ea9c47"/><stop offset="0.87" stop-color="#ea9c47"/></linearGradient><linearGradient id="Gradiente_sem_nome_6" x1="18.33" y1="23.61" x2="36.55" y2="23.61" gradientUnits="userSpaceOnUse"><stop offset="0" stop-color="#eca94d"/><stop offset="0.11" stop-color="#ea9c47"/><stop offset="0.87" stop-color="#ea9c47"/></linearGradient></defs><path class="cls-1" d="M89.49,4.23l-18,28.08L53.63,4.23H61l9,15.17a20.23,20.23,0,0,1,1.41,2.88,10.6,10.6,0,0,1,.7-1.44l.81-1.4L82.08,4.23Z"/><path class="cls-1" d="M127.62,4.23V18.3a17.17,17.17,0,0,1-.94,5.85A12,12,0,0,1,124,28.53a11.52,11.52,0,0,1-4.37,2.73,17.26,17.26,0,0,1-5.92.94H90.5v-14a16.63,16.63,0,0,1,.94-5.77A11.87,11.87,0,0,1,94.17,8a12.25,12.25,0,0,1,4.4-2.8,16.72,16.72,0,0,1,5.91-1Zm-6.8,6.6H104.6a14.34,14.34,0,0,0-3.51.36,4.59,4.59,0,0,0-2.24,1.22,4.87,4.87,0,0,0-1.2,2.29,15.15,15.15,0,0,0-.36,3.6v7.27h16.22a14.63,14.63,0,0,0,3.44-.34,4.75,4.75,0,0,0,2.26-1.18,4.83,4.83,0,0,0,1.23-2.27,14.07,14.07,0,0,0,.38-3.6Z"/><path class="cls-1" d="M167.37,32.2H132.45v-14a17.09,17.09,0,0,1,.94-5.87,11.87,11.87,0,0,1,2.72-4.4,11.58,11.58,0,0,1,4.37-2.74,17.61,17.61,0,0,1,6-.94h20.94v6.6H146.56q-7.32,0-7.32,7.47v7.27h28.13Z"/><path class="cls-1" d="M207,32.2h-6.79V21.42h-21.7V32.2h-6.79v-28h6.79V15.1h21.7V4.23H207Z"/><path class="cls-1" d="M262.71,10.83H249.84V32.2h-6.79V10.83h-4.72q-4.43,0-4.79,4.27h-6.43Q228,4.24,239.41,4.23h23.3Z"/><path class="cls-1" d="M301.66,10.83H273V15.1h28v6.28H273.33a5.73,5.73,0,0,0,2.24,3.11,8.47,8.47,0,0,0,4.72,1.08h21.37V32.2H280.17a16.3,16.3,0,0,1-5.84-1,12.31,12.31,0,0,1-4.41-2.77,11.94,11.94,0,0,1-2.78-4.38,16.43,16.43,0,0,1-1-5.77V4.23h35.48Z"/><path class="cls-1" d="M340.38,32.2H305.46v-14a17.09,17.09,0,0,1,.94-5.87,11.85,11.85,0,0,1,2.71-4.4,11.7,11.7,0,0,1,4.38-2.74,17.61,17.61,0,0,1,5.95-.94h20.94v6.6H319.56q-7.31,0-7.31,7.47v7.27h28.13Z"/><path class="cls-1" d="M380,32.2h-6.8V21.42H351.53V32.2h-6.79v-28h6.79V15.1h21.69V4.23H380Z"/><path class="cls-2" d="M1.65,10.69A18.27,18.27,0,0,0,18.13,36.55Z"/><path class="cls-3" d="M16.56,21.7A22.94,22.94,0,0,1,18.19,25,13.51,13.51,0,0,1,19,23.37L20,21.74,30.25,4.48a18.24,18.24,0,0,0-23.95,0Z"/><path class="cls-4" d="M18.33,36.55A18.27,18.27,0,0,0,34.89,10.67Z"/></svg>